<svg width="60" height="55" viewBox="0 0 60 55" fill="none" xmlns="http://www.w3.org/2000/svg">
<path d="M20.7861 47.9004C9.32673 47.9004 0 38.492 0 26.9263C0 15.3606 9.32673 5.95825 20.7861 5.95825C25.7822 5.95825 30.6119 7.774 34.3901 11.0699C34.8178 11.4415 35.0733 11.9568 35.1089 12.5201C35.1505 13.0834 34.9663 13.6348 34.598 14.0602C34.2 14.5276 33.6178 14.7913 33.0059 14.7913C32.501 14.7913 32.0079 14.6056 31.6277 14.27C28.6218 11.6392 24.7663 10.195 20.7802 10.195C11.6495 10.207 4.21188 17.7097 4.21188 26.9263C4.21188 36.1429 11.6495 43.6516 20.7921 43.6516C22.4079 43.6516 24 43.4179 25.5327 42.9565C25.7287 42.8966 25.9307 42.8666 26.1327 42.8666C27.0535 42.8666 27.8851 43.4898 28.1525 44.3827C28.4851 45.5033 27.8495 46.6899 26.7386 47.0254C24.8079 47.6067 22.8119 47.9004 20.7861 47.9004Z" fill="white"/>
<path d="M59.9999 36.9638C59.9999 40.02 58.8831 42.7826 56.8514 44.7542C54.594 46.9474 51.2791 48.11 47.2574 48.11H30.7306V31.972H13.7227C12.6118 31.972 11.691 31.145 11.59 30.0543C11.5306 29.4611 11.7267 28.8618 12.1306 28.4184C12.5286 27.9749 13.093 27.7232 13.6871 27.7232H32.8455C33.4277 27.7232 33.9504 27.9629 34.3366 28.3465C34.7168 28.73 34.9544 29.2633 34.9544 29.8506V43.8673H47.2692C53.8039 43.8673 55.7643 39.2769 55.7643 35.8492C55.7643 32.1997 52.3722 27.8311 47.2692 27.8311H43.9069C43.8831 27.8311 43.8593 27.8311 43.8356 27.8311C43.7999 27.8311 43.7643 27.8251 43.7346 27.8251C43.693 27.8191 43.6514 27.8191 43.6098 27.8131C43.3187 27.7712 43.0455 27.6633 42.8078 27.5195C42.7544 27.4835 42.7009 27.4536 42.6534 27.4176L42.6475 27.4116C42.5999 27.3757 42.5524 27.3337 42.5049 27.2978C42.4217 27.2258 42.3504 27.1479 42.2791 27.064C42.2494 27.0281 42.2197 26.9861 42.19 26.9442C42.1722 26.9202 42.1544 26.8963 42.1366 26.8723C42.095 26.8124 42.0593 26.7464 42.0296 26.6805C42.0177 26.6565 41.9999 26.6266 41.9821 26.5846C41.9405 26.5007 41.8692 26.321 41.8276 26.0753C41.8098 25.9614 41.7979 25.8416 41.7979 25.7217C41.7979 25.0925 42.0712 24.5292 42.4989 24.1397C42.5346 24.1097 42.5702 24.0737 42.6118 24.0438C42.7841 23.9119 42.9742 23.8041 43.1762 23.7262C43.2118 23.7142 43.2415 23.7022 43.2772 23.6902C43.3069 23.6782 43.3425 23.6722 43.3722 23.6603C43.4078 23.6483 43.4494 23.6423 43.491 23.6303C43.5445 23.6183 43.592 23.6123 43.6514 23.6063C43.7346 23.5943 43.8177 23.5943 43.9009 23.5943H47.1682C49.2118 23.5943 50.8395 22.9172 52.0158 21.5868C53.0554 20.4063 53.6494 18.7463 53.6494 17.0325C53.6494 14.0901 51.9207 10.6444 47.0613 10.6444H43.0633C41.9049 10.6444 40.9603 9.69154 40.9603 8.52299C40.9603 7.35443 41.9049 6.40161 43.0633 6.40161H47.0613C54.1544 6.40161 57.8613 11.753 57.8613 17.0385C57.8613 19.825 56.8989 22.4557 55.1465 24.4333C54.7722 24.8588 54.3623 25.2483 53.9286 25.5959C54.891 26.2311 55.7821 27.0101 56.5781 27.927C58.7524 30.4199 59.9999 33.7158 59.9999 36.9638Z" fill="white"/>
<path d="M43.5979 21.8549C43.3068 21.813 43.0335 21.7111 42.7959 21.5613C43.0335 21.7051 43.3068 21.807 43.5979 21.8549Z" fill="white"/>
</svg>
